<svg width="111" height="76" viewBox="0 0 111 76" fill="none" xmlns="http://www.w3.org/2000/svg">
<g filter="url(#filter0_d_16_2505)">
<path d="M27.9167 30.2076C27.2498 30.0633 26.4875 30.1114 25.5824 30.4481C24.6772 30.7367 23.7245 31.2177 22.724 31.8912C21.7236 32.5646 20.7708 33.3342 19.7704 34.2C18.8176 35.0658 17.9124 36.0279 17.1026 36.9418C16.2927 37.9038 15.5781 38.8658 15.0064 39.7798C14.4348 40.6937 14.0536 41.5595 13.9107 42.3291C14.8635 42.6658 15.8639 42.9545 16.8644 43.1469C17.8648 43.3393 18.8652 43.5798 19.8657 43.8684C20.8661 44.157 21.8189 44.4456 22.724 44.8304C23.6292 45.2152 24.4867 45.7443 25.2013 46.4177C25.8682 47.0431 26.4399 47.7165 26.9163 48.438C27.3927 49.2076 27.7262 49.9772 27.8691 50.7469C28.0596 51.5165 28.0596 52.3342 27.8691 53.1038C27.7262 53.8734 27.2974 54.6431 26.7257 55.3165C25.9159 56.0861 25.0107 56.7114 24.0103 57.2405C23.0099 57.7215 21.9618 58.1544 20.8661 58.4431C19.7704 58.7317 18.6747 58.9241 17.5313 58.9722C16.4356 59.0684 15.3399 59.0203 14.3395 58.9722C13.3867 58.7798 12.5768 58.4912 11.9099 57.962C11.2429 57.481 10.7189 56.7595 10.3854 55.8456C10.3378 55.6532 10.2425 55.4127 10.1948 55.076C10.1472 54.7393 10.0996 54.4507 10.1472 54.162C10.1472 53.8734 10.2425 53.6329 10.3854 53.4886C10.5283 53.3443 10.7665 53.3443 11.0524 53.4886C11.6717 53.7772 12.3863 53.9215 13.1961 53.9696C14.006 53.9696 14.8159 53.9696 15.6257 53.8734C16.4356 53.7772 17.2455 53.5848 18.0077 53.3924C18.77 53.2 19.4369 53.0076 20.0562 52.8152C20.9614 52.5266 21.7712 52.1899 22.5811 51.757C23.3433 51.3241 23.9627 50.6988 24.3914 49.881C23.5339 49.5443 22.6287 49.2557 21.7712 49.0152C20.8661 48.7747 19.9609 48.5823 19.1034 48.3899C18.2459 48.1975 17.3884 47.957 16.5785 47.6684C15.7687 47.3798 15.0064 47.0431 14.2918 46.6101C12.0051 45.2152 10.7189 43.1469 10.3854 40.4532C10.3854 39.0582 10.6712 37.7114 11.3382 36.3165C12.0051 34.9696 12.8627 33.6709 13.8631 32.5165C14.8635 31.362 16.0069 30.2557 17.1502 29.2456C18.3412 28.2836 19.4369 27.4658 20.3897 26.7924C21.0566 26.3595 21.7712 25.9747 22.5335 25.6861C23.2957 25.3975 24.1056 25.2051 24.8678 25.157C25.63 25.157 26.3923 25.2051 27.1545 25.4937C27.8691 25.7342 28.536 26.2152 29.1077 26.7924C29.6794 27.4658 30.1081 28.1393 30.4893 28.9089C30.8704 29.6785 31.1086 30.4481 31.2039 31.2177C31.3468 31.9874 31.2991 32.8051 31.2039 33.5747C31.0609 34.3443 30.7751 35.0658 30.394 35.7393C29.1077 38.1443 27.2974 40.1165 24.9154 41.6076C24.6772 41.7038 24.439 41.7519 24.1532 41.7038C23.915 41.7038 23.6768 41.5595 23.5339 41.3671C22.5335 40.4532 21.9142 39.2988 21.7236 37.9519C21.7236 37.4228 21.8665 36.9899 22.2 36.7494C24.0103 35.595 25.5824 34.1038 26.8687 32.276C27.1069 31.9393 27.3451 31.6026 27.5356 31.2658C27.7262 30.9291 27.8691 30.5443 27.9644 30.1114L27.9167 30.2076Z" fill="white"/>
<path d="M41.2082 27.562C42.3992 28.1392 43.3043 28.9088 43.9713 29.8709C44.6382 30.8329 45.1146 31.8911 45.4005 33.0455C45.6863 34.2 45.7816 35.4025 45.7339 36.7012C45.6863 38 45.4957 39.2506 45.2099 40.4531C44.9241 41.7038 44.4953 42.8582 44.0665 43.9645C43.5901 45.0709 43.1138 46.0329 42.5897 46.8025C42.2086 47.4278 41.7322 48.0531 41.1605 48.7747C40.5889 49.4481 40.0172 50.1215 39.3979 50.7949C38.7786 51.4683 38.1116 52.0455 37.4447 52.5747C36.7777 53.1038 36.1108 53.4886 35.4438 53.7291C35.3485 54.4987 35.3485 55.2202 35.3962 55.9417C35.3962 56.6633 35.4914 57.3848 35.5867 58.1063C35.5867 58.3468 35.7296 58.5392 35.9678 58.6835C36.1584 58.8759 36.3489 59.0683 36.4442 59.2607C36.5871 59.4531 36.5871 59.6455 36.5395 59.7898C36.4442 59.9342 36.3489 60.0303 36.206 60.1266C36.0631 60.2228 35.8726 60.2709 35.6344 60.319C35.4438 60.319 35.2532 60.319 35.1103 60.319C34.6339 60.319 34.1575 60.2228 33.6335 60.0785C33.1095 59.9341 32.6331 59.7898 32.2043 59.5493C31.7756 59.3088 31.3944 59.0202 31.061 58.6354C30.7275 58.2506 30.5369 57.8177 30.4417 57.2886C30.2511 55.9417 30.2035 54.3063 30.3464 52.3342C30.4893 50.362 30.7275 48.2936 31.1086 46.1291C31.4897 43.9645 31.9185 41.8481 32.4425 39.7797C32.9665 37.6633 33.4429 35.8835 33.967 34.3443C34.2052 33.6228 34.5386 32.7569 34.8721 31.7468C35.2532 30.7367 35.7296 29.8228 36.3013 29.0531C36.873 28.2354 37.5876 27.6582 38.3974 27.3215C39.2073 26.9848 40.1601 27.0329 41.3035 27.6101L41.2082 27.562ZM36.1584 46.1291C36.7777 45.5038 37.397 44.6379 38.1116 43.5797C38.7786 42.5215 39.3979 41.3671 39.8743 40.0683C40.3507 38.7696 40.6841 37.4709 40.8271 36.0759C40.97 34.681 40.8271 33.3341 40.3983 31.9392C40.0648 32.5164 39.6837 33.3822 39.255 34.4886C38.8262 35.643 38.3974 36.8455 38.0163 38.2405C37.5876 39.5873 37.2065 40.9822 36.873 42.3772C36.5395 43.7721 36.3013 45.0228 36.1584 46.1291Z" fill="white"/>
<path d="M81.6541 13.3721L86.6562 12.3138C87.3708 12.2176 88.0377 12.0733 88.7047 11.929C89.324 11.7847 89.8957 11.6885 90.3721 11.6404C90.8485 11.5923 91.2296 11.6404 91.4678 11.6885C91.7536 11.7847 91.8489 12.0252 91.8489 12.4581C91.8489 12.843 91.7536 13.2759 91.706 13.7569C91.6107 14.2379 91.5154 14.6708 91.3725 15.0556C91.2296 15.4404 90.9914 15.8252 90.7532 16.1138C90.4674 16.4024 90.1339 16.5949 89.7528 16.6911C89.1335 16.8354 88.4189 16.9797 87.6566 17.1721C86.8944 17.3645 86.0845 17.5569 85.2747 17.7493C84.4648 17.9417 83.7026 18.1341 82.9403 18.2784C82.1781 18.4227 81.5588 18.6151 81.0347 18.7113C80.5107 18.8556 80.1296 18.9518 79.939 18.9999C79.7485 19.048 79.7961 19.048 80.082 18.9999C78.9386 24.4835 77.7476 29.967 76.4137 35.3543C75.1274 40.7417 73.8412 46.1771 72.5549 51.6126C72.4596 52.286 72.2691 52.767 71.9832 53.1037C71.6974 53.4404 71.221 53.5366 70.6017 53.3923C70.1253 53.2961 69.6489 53.1518 69.1725 53.0075C68.7438 52.8151 68.315 52.5265 67.8862 52.1898C67.6481 51.9493 67.4099 51.7569 67.2669 51.4683C67.124 51.2278 67.0764 50.8911 67.1717 50.5543C67.5528 48.7746 68.0292 46.8505 68.5532 44.8303C69.0772 42.7619 69.6013 40.7417 70.0777 38.6733C70.6017 36.605 71.1257 34.5847 71.6021 32.6126C72.1262 30.6404 72.6026 28.8607 72.9837 27.2252C73.4124 25.5898 73.7459 24.1467 74.0794 22.8961C74.3652 21.6455 74.6034 20.7797 74.6987 20.2024C72.9837 20.5873 71.5545 20.9721 70.3159 21.3569C69.1249 21.6936 67.8862 22.1265 66.6953 22.5594C66.4094 22.7037 66.1236 22.848 65.8377 22.9923C65.5043 23.1366 65.2184 23.2809 64.9326 23.329C64.6468 23.4252 64.4086 23.329 64.1704 23.2328C63.9322 23.0885 63.7893 22.7999 63.7416 22.3189C63.5987 21.886 63.5511 21.405 63.5034 20.924C63.5034 20.443 63.5034 19.9619 63.5987 19.529C63.694 19.0961 63.8369 18.6632 64.1227 18.3265C64.3609 17.9417 64.6944 17.7012 65.1232 17.5569C65.5519 17.3645 66.6 17.0278 68.2197 16.643C69.8395 16.21 72.2214 15.6328 75.4609 14.8632C75.6038 14.6227 75.6991 14.3822 75.7468 14.1898C75.842 13.9974 75.8897 13.7569 75.985 13.5645C76.0802 13.3721 76.1279 13.1316 76.2232 12.843C76.3184 12.5543 76.4137 12.2176 76.5566 11.7847C76.7948 11.1594 77.1759 10.7265 77.6047 10.4379C78.0811 10.1493 78.6051 10.1493 79.2244 10.4379C79.6532 10.6303 80.0343 11.0151 80.4631 11.6404C80.8442 12.2657 81.2253 12.843 81.5588 13.4683L81.6541 13.3721Z" fill="white"/>
<path d="M107.761 15.6808C108.094 16.4986 108.285 17.2682 108.285 18.0378C108.285 18.8074 108.189 19.4808 107.903 20.2024C107.665 20.8758 107.332 21.5492 106.855 22.2226C106.427 22.896 105.903 23.5694 105.331 24.291C104.14 25.8302 102.901 27.3213 101.567 28.7644C100.233 30.2074 98.8519 31.6024 97.4228 32.9973C95.9936 34.3922 94.5167 35.7872 93.0399 37.134C91.5631 38.4808 90.1339 39.9239 88.7047 41.3188C90.5627 41.1745 92.373 40.934 94.1833 40.6454C95.9936 40.3568 97.8515 40.3087 99.8047 40.453C100.329 40.453 100.805 40.5011 101.282 40.5973C101.758 40.6935 102.139 40.7897 102.52 40.9821C102.901 41.1745 103.187 41.415 103.473 41.7998C103.759 42.1365 103.902 42.6175 103.997 43.291C103.997 43.4353 104.045 43.7239 104.092 44.0606C104.092 44.4454 104.092 44.7821 104.045 45.1669C103.997 45.5517 103.854 45.8403 103.664 46.0808C103.473 46.3213 103.235 46.4175 102.901 46.3694C101.52 46.0327 99.9953 45.8884 98.3755 45.8884C96.7558 45.8884 95.0884 45.9846 93.421 46.2251C91.7537 46.4656 90.0863 46.7543 88.4189 47.1391C86.7515 47.5239 85.227 47.9087 83.7979 48.3416C83.512 48.4378 83.2262 48.534 82.8927 48.6302C82.5592 48.7264 82.2734 48.8226 81.9399 48.8707C81.6064 48.8707 81.3206 48.8707 81.0348 48.8707C80.7489 48.8226 80.4631 48.6302 80.2249 48.3897C79.3197 47.3796 78.8434 46.177 78.7957 44.8302C78.7957 44.3011 78.9386 43.8201 79.3198 43.3872C79.6532 43.0024 80.0343 42.6175 80.4631 42.2808C84.2743 38.577 88.0378 34.9694 91.7537 31.41C95.4695 27.8505 99.2331 24.1467 102.901 20.2505C98.6137 21.5492 94.612 23.5694 90.8961 26.3593C90.7056 26.5036 90.4198 26.7441 90.0863 26.9846C89.7528 27.2251 89.467 27.5138 89.1335 27.8024C88.8477 28.091 88.6095 28.4277 88.4189 28.7644C88.2283 29.1011 88.1807 29.3897 88.2283 29.7264C88.2283 30.015 88.1331 30.2074 87.9901 30.3517C87.8472 30.4479 87.7043 30.5441 87.5137 30.496C87.3708 30.496 87.1803 30.3998 86.9897 30.3036C86.7992 30.2074 86.6086 30.0631 86.4657 29.9188C85.5605 28.9568 85.0841 27.8024 84.9888 26.5036C84.9412 25.734 85.0841 25.0606 85.5129 24.4834C85.894 23.9062 86.3704 23.377 86.9421 22.8479C87.8949 22.0302 88.9906 21.2125 90.1339 20.3948C91.3249 19.6251 92.5159 18.8555 93.8022 18.1821C95.0884 17.5087 96.3747 16.8834 97.7562 16.3062C99.0901 15.7289 100.472 15.2479 101.806 14.815C102.282 14.6707 102.854 14.5264 103.425 14.3821C103.997 14.2378 104.569 14.1416 105.093 14.1416C105.617 14.1416 106.141 14.2859 106.617 14.5264C107.094 14.7669 107.475 15.1998 107.761 15.8251V15.6808Z" fill="#FF2D89"/>
<path d="M56.3575 49.448C56.5481 49.2556 56.691 49.0632 56.8339 48.9189C58.4537 47.1392 60.0734 45.3594 61.6455 43.5797C63.2176 41.7999 63.694 39.7316 62.8841 37.5189C62.0743 35.2582 60.4545 33.9113 58.1202 33.5746C55.7382 33.2379 53.785 34.1037 52.4035 36.124C51.0219 38.1442 50.9743 40.3088 52.1176 42.4733C53.3086 44.686 54.5949 46.8025 55.8335 49.0151C55.9288 49.1594 55.9764 49.3037 56.0717 49.448C51.7365 49.6885 47.1155 44.3974 47.2584 39.443C47.4013 33.3822 52.4035 28.8126 58.2631 29.4379C64.1704 30.0632 68.2674 35.5949 67.0288 41.5594C65.7901 47.524 60.1687 50.1214 56.2623 49.4961L56.3575 49.448Z" fill="white"/>
<path d="M53.3086 39.01C53.5468 36.7493 55.5476 35.1138 57.7867 35.4024C60.0257 35.6429 61.5978 37.6632 61.3596 39.9239C61.1214 42.1847 59.1682 43.8201 56.8815 43.5796C54.6425 43.3391 53.0227 41.3189 53.3086 39.0581V39.01Z" fill="white"/>
<path d="M55.2619 51.1797C57.3103 51.1797 59.4065 51.1797 61.455 51.1797C62.8842 51.1797 63.4082 51.5164 63.5035 52.4784C63.5035 52.6227 63.5035 52.767 63.5035 52.9113C63.5035 53.9215 62.9794 54.7392 60.8357 54.6911C57.7867 54.5468 54.6902 54.5468 51.5936 54.4987C50.8314 54.4987 50.0691 54.4987 49.3069 54.5949C48.7352 54.5949 48.3541 54.5468 48.0683 54.2101C47.449 53.4885 47.1631 52.767 47.449 51.9493C47.6395 51.4202 48.0683 51.2278 48.8782 51.2278C50.9743 51.2278 53.1181 51.2278 55.2142 51.2278L55.2619 51.1797Z" fill="white"/>
</g>
<defs>
<filter id="filter0_d_16_2505" x="10.1275" y="10.2214" width="100.157" height="52.0974" filterUnits="userSpaceOnUse" color-interpolation-filters="sRGB">
<feFlood flood-opacity="0" result="BackgroundImageFix"/>
<feColorMatrix in="SourceAlpha" type="matrix" values="0 0 0 0 0 0 0 0 0 0 0 0 0 0 0 0 0 0 127 0" result="hardAlpha"/>
<feOffset dx="1" dy="1"/>
<feGaussianBlur stdDeviation="0.5"/>
<feComposite in2="hardAlpha" operator="out"/>
<feColorMatrix type="matrix" values="0 0 0 0 0 0 0 0 0 0 0 0 0 0 0 0 0 0 0.25 0"/>
<feBlend mode="normal" in2="BackgroundImageFix" result="effect1_dropShadow_16_2505"/>
<feBlend mode="normal" in="SourceGraphic" in2="effect1_dropShadow_16_2505" result="shape"/>
</filter>
</defs>
</svg>
